# xmcd
#
# Track frame offsets:
#	150
#	4925
#	7317
#	12047
#	14447
#	19325
#	21872
#	26710
#	29240
#	30610
#	31762
#	32637
#	33680
#	38480
#	41132
#	45837
#	48572
#	49197
#	50057
#	54705
#	57365
#	62035
#	64652
#	65460
#	66227
#	67770
#	72645
#	75210
#	80077
#	82617
#	83590
#	88387
#	90980
#	95745
#	98400
#	98895
#	99497
#	100622
#	105600
#	108350
#	113185
#	116012
#	117872
#	118812
#	123752
#	128697
#	131412
#	136417
#	141172
#	145882
#	150817
#	155787
#	160640
#	163355
#	168077
#	172802
#	175587
#	178357
#	180745
#	185700
#	190647
#	193302
#	198345
#	203392
#	206090
#
# Disc length: 2778 seconds
#
# Revision: 1
# Processed by: cddbd v1.5.1PL0 Copyright (c) Steve Scherf et al.
# Submitted via: audiograbber 1.83.01
#
DISCID=770ad841
DTITLE=TM Century - MegaMusic - 501 - Country
DYEAR=1900
DGENRE=
TTITLE0=8059-Town Square - Full Mix
TTITLE1=8059-Town Square - Rhythm Mix
TTITLE2=8059-Town Square - Full Mix-Edit
TTITLE3=8059-Town Square - Rhythm Mix-Edit
TTITLE4=8060-Hillbilly Hoedown - Full Mix
TTITLE5=8060-Hillbilly Hoedown - Full Mix-Edit
TTITLE6=8060-Hillbilly Hoedown - Rhythm Mix
TTITLE7=8060-Hillbilly Hoedown - Rhythm Mix-Edit
TTITLE8=8060-Hillbilly Hoedown - Banjo
TTITLE9=8060-Hillbilly Hoedown - Mandolin
TTITLE10=8060-Hillbilly Hoedown - Fiddle
TTITLE11=8060-Hillbilly Hoedown - Tag
TTITLE12=8061-Country Road - Full Mix
TTITLE13=8061-Country Road - Full Mix-Edit
TTITLE14=8061-Country Road - Alternate Mix
TTITLE15=8061-Country Road - Alternate Mix-Edit
TTITLE16=8061-Country Road - Intro
TTITLE17=8061-Country Road - Tag
TTITLE18=8062-Weekend Getaway - Full Mix
TTITLE19=8062-Weekend Getaway - Full Mix-Edit
TTITLE20=8062-Weekend Getaway - Rhythm Mix
TTITLE21=8062-Weekend Getaway - Rhythm Mix-Edit
TTITLE22=8062-Weekend Getaway - Steel Guitar
TTITLE23=8062-Weekend Getaway - Piano
TTITLE24=8062-Weekend Getaway - Tag
TTITLE25=8063-Dairy Delight - Full Mix
TTITLE26=8063-Dairy Delight - Full Mix-Edit
TTITLE27=8063-Dairy Delight - Rhythm Mix
TTITLE28=8063-Dairy Delight - Rhythm Mix-Edit
TTITLE29=8063-Dairy Delight - Tag
TTITLE30=8064-Goin' To Town - Full Mix
TTITLE31=8064-Goin' To Town - Full Mix-Edit
TTITLE32=8064-Goin' To Town - Rhythm Mix
TTITLE33=8064-Goin' To Town - Rhythm Mix-Edit
TTITLE34=8064-Goin' To Town - Organ
TTITLE35=8064-Goin' To Town - Guitar
TTITLE36=8064-Goin' To Town - Full Tag
TTITLE37=8065-Rambling - Full Mix
TTITLE38=8065-Rambling - Full Mix-Edit
TTITLE39=8065-Rambling - Rhythm Mix
TTITLE40=8065-Rambling - Rhythm Mix-Edit
TTITLE41=8065-Rambling - Steel Guitar
TTITLE42=8065-Rambling - Full Tag
TTITLE43=8066-Bluegrass Feel - Full Mix
TTITLE44=8066-Bluegrass Feel - Rhythm Mix
TTITLE45=8066-Bluegrass Feel - Full Mix-Edit
TTITLE46=8066-Bluegrass Feel - Guitar and Banjo
TTITLE47=8066-Bluegrass Feel - Solo Banjo
TTITLE48=8066-Bluegrass Feel - Solo Guitar
TTITLE49=8067-Square Dance - Full Mix
TTITLE50=8067-Square Dance - Alternate Mix
TTITLE51=8067-Square Dance - Solo Guitar
TTITLE52=8067-Square Dance - Full Mix-Edit
TTITLE53=8068-Pickin' and Grinnin' - Full Mix
TTITLE54=8068-Pickin' and Grinnin' - Rhythm Mix
TTITLE55=8068-Pickin' and Grinnin' - Full Mix-Edit
TTITLE56=8068-Pickin' and Grinnin' - Rhythm Mix-Edit
TTITLE57=8068-Pickin' and Grinnin' - Steel Guitar
TTITLE58=8069-City Shuffling - Full Mix
TTITLE59=8069-City Shuffling - Full Mix-Edit
TTITLE60=8069-City Shuffling - Rhythm Mix
TTITLE61=8070-Prairie Daze - Full Mix
TTITLE62=8070-Prairie Daze - Rhythm Mix
TTITLE63=8071-Not What You Expected - Full Mix
TTITLE64=8071-Not What You Expected - Banjos Only
EXTD=
EXTT0=
EXTT1=
EXTT2=
EXTT3=
EXTT4=
EXTT5=
EXTT6=
EXTT7=
EXTT8=
EXTT9=
EXTT10=
EXTT11=
EXTT12=
EXTT13=
EXTT14=
EXTT15=
EXTT16=
EXTT17=
EXTT18=
EXTT19=
EXTT20=
EXTT21=
EXTT22=
EXTT23=
EXTT24=
EXTT25=
EXTT26=
EXTT27=
EXTT28=
EXTT29=
EXTT30=
EXTT31=
EXTT32=
EXTT33=
EXTT34=
EXTT35=
EXTT36=
EXTT37=
EXTT38=
EXTT39=
EXTT40=
EXTT41=
EXTT42=
EXTT43=
EXTT44=
EXTT45=
EXTT46=
EXTT47=
EXTT48=
EXTT49=
EXTT50=
EXTT51=
EXTT52=
EXTT53=
EXTT54=
EXTT55=
EXTT56=
EXTT57=
EXTT58=
EXTT59=
EXTT60=
EXTT61=
EXTT62=
EXTT63=
EXTT64=
PLAYORDER=
